<svg width="85" height="85" viewBox="0 0 85 85" fill="none" xmlns="http://www.w3.org/2000/svg">
<path d="M78.3575 50.5405L78.3576 50.5405C79.7326 47.5278 80.3137 45.8933 81.1259 42.7603C81.5397 41.1639 81.8909 38.9539 82.1441 37.0201L78.3575 50.5405ZM78.3575 50.5405C76.2026 55.2621 74.8536 57.6529 71.4835 61.6108L71.4835 61.6108L78.3575 50.5405ZM63.6343 69.0869L63.635 69.0863C63.7093 69.0206 63.7849 68.9537 63.8616 68.8859C64.037 68.7308 64.2183 68.5706 64.4035 68.4072C64.4039 68.4069 64.4042 68.4066 64.4046 68.4063L66.0581 70.2814L63.6343 69.0869ZM63.6343 69.0869C60.7298 71.6556 59.0851 73.1087 55.8431 75.2985L55.843 75.2985M63.6343 69.0869L55.843 75.2985M55.843 75.2985C53.2523 77.0485 49.4022 79.0315 46.0092 80.6454L46.009 80.6455M55.843 75.2985L46.009 80.6455M46.009 80.6455C44.687 81.2744 43.4768 81.8274 42.5 82.2648C41.5232 81.8274 40.313 81.2744 38.991 80.6455L38.9908 80.6454M46.009 80.6455L38.9908 80.6454M38.9908 80.6454C35.5978 79.0315 31.7477 77.0485 29.157 75.2985L29.1569 75.2984M38.9908 80.6454L29.1569 75.2984M29.1569 75.2984C25.9151 73.1089 24.2705 71.6558 21.3663 69.0876C21.119 68.8686 20.8625 68.6419 20.5958 68.4066C20.1744 68.0347 19.779 67.6881 19.4078 67.3627L19.273 67.2446L19.2721 67.2437M29.1569 75.2984L19.2721 67.2437M19.2721 67.2437C16.9088 65.1742 15.4909 63.9295 13.5166 61.6108L11.7107 63.1485M19.2721 67.2437L11.7107 63.1485M11.7107 63.1485L13.5166 61.6108C10.1465 57.6529 8.79737 55.2621 6.64241 50.5405L6.64235 50.5404M11.7107 63.1485L6.64235 50.5404M6.64235 50.5404C5.26723 47.5278 4.68627 45.8934 3.87412 42.7604L3.87411 42.7603M6.64235 50.5404L3.87411 42.7603M3.87411 42.7603C3.46026 41.1639 3.10895 38.9539 2.85592 37.0202L3.87411 42.7603ZM2.57511 34.6541L2.57529 34.6557C2.63818 35.2482 2.73269 36.0784 2.85591 37.0202L2.57511 34.6541ZM2.57511 34.6541C2.54365 34.3596 2.51985 34.1243 2.50406 33.9642C2.50395 33.9631 2.50384 33.962 2.50373 33.9608L2.5 33.9217L2.5 16C2.5 8.54416 8.54416 2.5 16 2.5M2.57511 34.6541L16 2.5M16 2.5L69 2.5C76.4558 2.5 82.5 8.54416 82.5 16L82.5 33.9208M16 2.5L82.5 33.9208M82.5 33.9208L82.496 33.9621C82.4959 33.9629 82.4959 33.9637 82.4958 33.9644C82.4801 34.1245 82.4564 34.3599 82.425 34.6545L82.5 33.9208ZM82.425 34.6546C82.3616 35.2486 82.2673 36.0788 82.1442 37.02L82.425 34.6546Z" fill="white" stroke="#3B267B" stroke-width="5" stroke-linejoin="round"/>
</svg>
