<svg fill="none" xmlns="http://www.w3.org/2000/svg" >
    <symbol id="arrow--left" viewBox="0 0 18 16">
        <path d="M0.292893 7.29289C-0.0976311 7.68342 -0.0976311 8.31658 0.292893 8.70711L6.65685 15.0711C7.04738 15.4616 7.68054 15.4616 8.07107 15.0711C8.46159 14.6805 8.46159 14.0474 8.07107 13.6569L2.41421 8L8.07107 2.34315C8.46159 1.95262 8.46159 1.31946 8.07107 0.928932C7.68054 0.538408 7.04738 0.538408 6.65685 0.928932L0.292893 7.29289ZM17 9C17.5523 9 18 8.55228 18 8C18 7.44772 17.5523 7 17 7V9ZM1 9L17 9V7L1 7L1 9Z" fill="white"/>
    </symbol>

    <symbol id="arrow--right" viewBox="0 0 18 16">
        <path d="M1 7C0.447715 7 0 7.44772 0 8C0 8.55228 0.447715 9 1 9L1 7ZM17.7071 8.70711C18.0976 8.31658 18.0976 7.68342 17.7071 7.29289L11.3431 0.928932C10.9526 0.538408 10.3195 0.538408 9.92893 0.928932C9.53841 1.31946 9.53841 1.95262 9.92893 2.34315L15.5858 8L9.92893 13.6569C9.53841 14.0474 9.53841 14.6805 9.92893 15.0711C10.3195 15.4616 10.9526 15.4616 11.3431 15.0711L17.7071 8.70711ZM1 9L17 9V7L1 7L1 9Z" fill="white"/>
    </symbol>

    <symbol id="arrow_hover--left" viewBox="0 0 30 30">
        <path d="M6.29289 14.2929C5.90237 14.6834 5.90237 15.3166 6.29289 15.7071L12.6569 22.0711C13.0474 22.4616 13.6805 22.4616 14.0711 22.0711C14.4616 21.6805 14.4616 21.0474 14.0711 20.6569L8.41421 15L14.0711 9.34315C14.4616 8.95262 14.4616 8.31946 14.0711 7.92893C13.6805 7.53841 13.0474 7.53841 12.6569 7.92893L6.29289 14.2929ZM23 16C23.5523 16 24 15.5523 24 15C24 14.4477 23.5523 14 23 14V16ZM7 16L23 16V14L7 14V16Z" fill="white"/>
        <circle cx="15" cy="15" r="14" transform="rotate(-90 15 15)" stroke="white" stroke-width="2"/>
    </symbol>

    <symbol id="arrow_hover--right" viewBox="0 0 30 30">
        <path d="M7 14C6.44772 14 6 14.4477 6 15C6 15.5523 6.44772 16 7 16V14ZM23.7071 15.7071C24.0976 15.3166 24.0976 14.6834 23.7071 14.2929L17.3431 7.92893C16.9526 7.53841 16.3195 7.53841 15.9289 7.92893C15.5384 8.31946 15.5384 8.95262 15.9289 9.34315L21.5858 15L15.9289 20.6569C15.5384 21.0474 15.5384 21.6805 15.9289 22.0711C16.3195 22.4616 16.9526 22.4616 17.3431 22.0711L23.7071 15.7071ZM7 16L23 16V14L7 14V16Z" fill="white"/>
        <circle cx="15" cy="15" r="14" transform="rotate(-90 15 15)" stroke="white" stroke-width="2"/>
    </symbol>

    <symbol id="arrow_clicked--left" viewBox="0 0 30 30">
        <circle class="icon-circle" cx="15" cy="15" r="14" transform="rotate(-90 15 15)" stroke-width="2"/>
        <path d="M6.29289 14.2929C5.90237 14.6834 5.90237 15.3166 6.29289 15.7071L12.6569 22.0711C13.0474 22.4616 13.6805 22.4616 14.0711 22.0711C14.4616 21.6805 14.4616 21.0474 14.0711 20.6569L8.41421 15L14.0711 9.34315C14.4616 8.95262 14.4616 8.31946 14.0711 7.92893C13.6805 7.53841 13.0474 7.53841 12.6569 7.92893L6.29289 14.2929ZM23 16C23.5523 16 24 15.5523 24 15C24 14.4477 23.5523 14 23 14V16ZM7 16L23 16V14L7 14V16Z" fill="white"/>
    </symbol>

    <symbol id="arrow_clicked--right" viewBox="0 0 30 30">
        <circle class="icon-circle" cx="15" cy="15" r="14" transform="rotate(-90 15 15)" stroke-width="2"/>
        <path d="M7 14C6.44772 14 6 14.4477 6 15C6 15.5523 6.44772 16 7 16V14ZM23.7071 15.7071C24.0976 15.3166 24.0976 14.6834 23.7071 14.2929L17.3431 7.92893C16.9526 7.53841 16.3195 7.53841 15.9289 7.92893C15.5384 8.31946 15.5384 8.95262 15.9289 9.34315L21.5858 15L15.9289 20.6569C15.5384 21.0474 15.5384 21.6805 15.9289 22.0711C16.3195 22.4616 16.9526 22.4616 17.3431 22.0711L23.7071 15.7071ZM7 16L23 16V14L7 14V16Z" fill="white"/>
    </symbol>
</svg>
